#Comment line ignore any data following # character 
#Hierarchical Translation and Rotation (.htr) file 
[Header]	
#Header keywords are followed by a single value 
FileType HTR		#Single word string
DataType HTRS		#Translation followed by rotation and scale data
FileVersion 1		#integer
NumSegments 64		#integer
NumFrames 3		#integer
DataFrameRate 30		#integer, data frame rate in this file
EulerRotationOrder ZYX
CalibrationUnits mm
RotationUnits Degrees
GlobalAxisofGravity Y
BoneLengthAxis Y
ScaleFactor 1.00
[SegmentNames&Hierarchy]
#CHILD	PARENT
Pinger_Root GLOBAL
Pelvis Pinger_Root
L_Hip Pelvis
R_Hip Pelvis
Rear_Leg01 Pelvis
Spine1 Pelvis
L_Leg01 L_Hip
L_Leg02 L_Leg01
L_Leg03 L_Leg02
L_Foot L_Leg03
L_Toe1_01 L_Foot
L_Toe2_01 L_Foot
L_Toe3_01 L_Foot
planeAlignerLeft L_Foot
L_Toe1_02 L_Toe1_01
L_Toe1_03 L_Toe1_02
L_Toe2_02 L_Toe2_01
L_Toe2_03 L_Toe2_02
L_Toe3_02 L_Toe3_01
L_Toe3_03 L_Toe3_02
planeLockWeightLeft planeAlignerLeft
R_Leg01 R_Hip
R_Leg02 R_Leg01
R_Leg03 R_Leg02
R_Foot R_Leg03
planeAlignerRight R_Foot
R_Toe1_01 R_Foot
R_Toe2_01 R_Foot
R_Toe3_01 R_Foot
planeLockWeightRight planeAlignerRight
R_Toe1_02 R_Toe1_01
R_Toe1_03 R_Toe1_02
R_Toe2_02 R_Toe2_01
R_Toe2_03 R_Toe2_02
R_Toe3_02 R_Toe3_01
R_Toe3_03 R_Toe3_02
Rear_Leg02 Rear_Leg01
Rear_Leg03 Rear_Leg02
Rear_Leg04 Rear_Leg03
Rear_Foot Rear_Leg04
planeAlignerCenter Rear_Foot
Rear_Toe1_01 Rear_Foot
Rear_Toe2_01 Rear_Foot
Rear_Toe3_01 Rear_Foot
planeLockWeightCenter planeAlignerCenter
Rear_Toe1_02 Rear_Toe1_01
Rear_Toe1_03 Rear_Toe1_02
Rear_Toe2_02 Rear_Toe2_01
Rear_Toe2_03 Rear_Toe2_02
Rear_Toe3_02 Rear_Toe3_01
Rear_Toe3_03 Rear_Toe3_02
Back_Bone Spine1
Head Spine1
Motor_Bone Back_Bone
Ping_Mechanism Back_Bone
BN_LookIK Head
bottomMouth Head
L_Mouth01 Head
L_mouthFront Head
mouthGun Head
R_Mouth01 Head
R_mouthFront Head
TopMouth Head
weapon_bone Head
[BasePosition]
#SegmentName Tx, Ty, Tz, Rx, Ry, Rz, BoneLength
Pinger_Root 0.000000 0.000000 0.000000 -90.000000 0.000000 0.000000 10.000000 
Pelvis 0.000000 0.000000 0.000000 0.000000 0.000000 0.000000 10.000000 
L_Hip 0.000000 0.000000 0.000000 0.000000 0.000000 0.000000 10.000000 
R_Hip 0.000000 0.000000 0.000000 0.000000 0.000000 0.000000 10.000000 
Rear_Leg01 0.000000 0.000000 0.000000 0.000000 0.000000 0.000000 10.000000 
Spine1 0.000000 0.000000 0.000000 0.000000 0.000000 0.000000 10.000000 
L_Leg01 0.000000 0.000000 0.000000 0.000000 0.000000 0.000000 10.000000 
L_Leg02 0.000000 0.000000 0.000000 0.000000 0.000000 0.000000 10.000000 
L_Leg03 0.000000 0.000000 0.000000 0.000000 0.000000 0.000000 10.000000 
L_Foot 0.000000 0.000000 0.000000 0.000000 0.000000 0.000000 10.000000 
L_Toe1_01 0.000000 0.000000 0.000000 0.000000 0.000000 0.000000 10.000000 
L_Toe2_01 0.000000 0.000000 0.000000 0.000000 0.000000 0.000000 10.000000 
L_Toe3_01 0.000000 0.000000 0.000000 0.000000 0.000000 0.000000 10.000000 
planeAlignerLeft 0.000000 0.000000 0.000000 0.000000 0.000000 0.000000 10.000000 
L_Toe1_02 0.000000 0.000000 0.000000 0.000000 0.000000 0.000000 10.000000 
L_Toe1_03 0.000000 0.000000 0.000000 0.000000 0.000000 0.000000 10.000000 
L_Toe2_02 0.000000 0.000000 0.000000 0.000000 0.000000 0.000000 10.000000 
L_Toe2_03 0.000000 0.000000 0.000000 0.000000 0.000000 0.000000 10.000000 
L_Toe3_02 0.000000 0.000000 0.000000 0.000000 0.000000 0.000000 10.000000 
L_Toe3_03 0.000000 0.000000 0.000000 0.000000 0.000000 0.000000 10.000000 
planeLockWeightLeft 0.000000 0.000000 0.000000 0.000000 0.000000 0.000000 10.000000 
R_Leg01 0.000000 0.000000 0.000000 0.000000 0.000000 0.000000 10.000000 
R_Leg02 0.000000 0.000000 0.000000 0.000000 0.000000 0.000000 10.000000 
R_Leg03 0.000000 0.000000 0.000000 0.000000 0.000000 0.000000 10.000000 
R_Foot 0.000000 0.000000 0.000000 0.000000 0.000000 0.000000 10.000000 
planeAlignerRight 0.000000 0.000000 0.000000 0.000000 0.000000 0.000000 10.000000 
R_Toe1_01 0.000000 0.000000 0.000000 0.000000 0.000000 0.000000 10.000000 
R_Toe2_01 0.000000 0.000000 0.000000 0.000000 0.000000 0.000000 10.000000 
R_Toe3_01 0.000000 0.000000 0.000000 0.000000 0.000000 0.000000 10.000000 
planeLockWeightRight 0.000000 0.000000 0.000000 0.000000 0.000000 0.000000 10.000000 
R_Toe1_02 0.000000 0.000000 0.000000 0.000000 0.000000 0.000000 10.000000 
R_Toe1_03 0.000000 0.000000 0.000000 0.000000 0.000000 0.000000 10.000000 
R_Toe2_02 0.000000 0.000000 0.000000 0.000000 0.000000 0.000000 10.000000 
R_Toe2_03 0.000000 0.000000 0.000000 0.000000 0.000000 0.000000 10.000000 
R_Toe3_02 0.000000 0.000000 0.000000 0.000000 0.000000 0.000000 10.000000 
R_Toe3_03 0.000000 0.000000 0.000000 0.000000 0.000000 0.000000 10.000000 
Rear_Leg02 0.000000 0.000000 0.000000 0.000000 0.000000 0.000000 10.000000 
Rear_Leg03 0.000000 0.000000 0.000000 0.000000 0.000000 0.000000 10.000000 
Rear_Leg04 0.000000 0.000000 0.000000 0.000000 0.000000 0.000000 10.000000 
Rear_Foot 0.000000 0.000000 0.000000 0.000000 0.000000 0.000000 10.000000 
planeAlignerCenter 0.000000 0.000000 0.000000 0.000000 0.000000 0.000000 10.000000 
Rear_Toe1_01 0.000000 0.000000 0.000000 0.000000 0.000000 0.000000 10.000000 
Rear_Toe2_01 0.000000 0.000000 0.000000 0.000000 0.000000 0.000000 10.000000 
Rear_Toe3_01 0.000000 0.000000 0.000000 0.000000 0.000000 0.000000 10.000000 
planeLockWeightCenter 0.000000 0.000000 0.000000 0.000000 0.000000 0.000000 10.000000 
Rear_Toe1_02 0.000000 0.000000 0.000000 0.000000 0.000000 0.000000 10.000000 
Rear_Toe1_03 0.000000 0.000000 0.000000 0.000000 0.000000 0.000000 10.000000 
Rear_Toe2_02 0.000000 0.000000 0.000000 0.000000 0.000000 0.000000 10.000000 
Rear_Toe2_03 0.000000 0.000000 0.000000 0.000000 0.000000 0.000000 10.000000 
Rear_Toe3_02 0.000000 0.000000 0.000000 0.000000 0.000000 0.000000 10.000000 
Rear_Toe3_03 0.000000 0.000000 0.000000 0.000000 0.000000 0.000000 10.000000 
Back_Bone 0.000000 0.000000 0.000000 0.000000 0.000000 0.000000 10.000000 
Head 0.000000 0.000000 0.000000 0.000000 0.000000 0.000000 10.000000 
Motor_Bone 0.000000 0.000000 0.000000 0.000000 0.000000 0.000000 10.000000 
Ping_Mechanism 0.000000 0.000000 0.000000 0.000000 0.000000 0.000000 10.000000 
BN_LookIK 0.000000 0.000000 0.000000 0.000000 0.000000 0.000000 10.000000 
bottomMouth 0.000000 0.000000 0.000000 0.000000 0.000000 0.000000 10.000000 
L_Mouth01 0.000000 0.000000 0.000000 0.000000 0.000000 0.000000 10.000000 
L_mouthFront 0.000000 0.000000 0.000000 0.000000 0.000000 0.000000 10.000000 
mouthGun 0.000000 0.000000 0.000000 0.000000 0.000000 0.000000 10.000000 
R_Mouth01 0.000000 0.000000 0.000000 0.000000 0.000000 0.000000 10.000000 
R_mouthFront 0.000000 0.000000 0.000000 0.000000 0.000000 0.000000 10.000000 
TopMouth 0.000000 0.000000 0.000000 0.000000 0.000000 0.000000 10.000000 
weapon_bone 0.000000 0.000000 0.000000 0.000000 0.000000 0.000000 10.000000 
#Beginning of Data. Separated by tabs
#Fr	Tx	Ty	Tz	Rx	Ry	Rz	SF
[Pinger_Root]
48 0.000000 0.000000 0.000000 -0.000075 -0.000000 -0.000020 0.000000
49 0.000000 0.000000 0.000000 -0.000075 -0.000000 -0.000020 0.000000
50 0.000000 0.000000 0.000000 -0.000075 -0.000000 -0.000020 0.000000
[Pelvis]
48 618.260010 1238.275879 4518.357910 -26.560553 -71.837814 29.389345 4725.582520
49 610.568481 1237.570923 4562.782227 -26.049593 -73.245422 28.211901 4766.902344
50 589.123169 1233.781250 4589.834473 -24.801228 -76.522095 25.462151 4789.140137
[L_Hip]
48 5.766392 125.831482 872.656799 151.258636 -41.221344 135.242523 881.701050
49 5.766392 125.831482 872.656799 152.520187 -41.975742 133.343765 881.701050
50 5.766392 125.831482 872.656799 155.466339 -43.531120 129.006149 881.701050
[R_Hip]
48 5.765438 125.836372 -872.654907 64.811859 72.248680 146.633743 881.699829
49 5.765438 125.836372 -872.654907 58.221249 69.310410 140.617798 881.699829
50 5.765438 125.836372 -872.654907 53.221127 66.188988 136.197906 881.699829
[Rear_Leg01]
48 -192.298416 -925.602966 -0.001907 175.229248 1.075916 -152.776489 945.367432
49 -192.298416 -925.602966 -0.001907 -179.337128 3.521667 -156.572556 945.367432
50 -192.298416 -925.602966 -0.001907 -179.245071 3.407604 -158.054764 945.367432
[Spine1]
48 290.604584 5.007505 0.000477 -5.730591 -8.566264 15.175391 290.647736
49 290.604584 5.007505 0.000477 -4.639632 -7.401732 15.939913 290.647736
50 290.604584 5.007505 0.000477 -2.252171 -5.711772 17.806215 290.647736
[L_Leg01]
48 761.932007 -0.002384 -0.069261 37.219723 -38.448006 -7.225056 761.932068
49 761.932007 -0.002384 -0.069261 36.732414 -39.929688 -5.885867 761.932068
50 761.932007 -0.002384 -0.069261 25.540272 -36.026936 -1.324258 761.932068
[L_Leg02]
48 1441.140503 -0.000954 -0.000715 -1.395634 0.701102 -99.051811 1441.140503
49 1441.140503 -0.000954 -0.000715 -1.328517 0.761655 -102.011208 1441.140503
50 1441.140503 -0.000954 -0.000715 -1.250757 0.760513 -112.233223 1441.140503
[L_Leg03]
48 1686.963989 -0.000715 -0.000954 0.068585 -0.011779 92.150490 1686.963989
49 1686.963989 -0.000715 -0.000954 0.079438 -0.013080 88.690331 1686.963989
50 1686.963989 -0.000715 -0.000954 0.079346 -0.013628 89.481308 1686.963989
[L_Foot]
48 3041.570068 -30.715107 11.297464 -11.510100 11.700551 50.686455 3041.746094
49 3041.570068 -30.715107 11.297464 -11.545835 12.761567 53.248989 3041.746094
50 3041.570068 -30.715107 11.297464 -8.187221 13.473863 56.392349 3041.746094
[L_Toe1_01]
48 -188.216690 -224.732346 -21.137953 94.280670 -28.131250 179.902283 293.899567
49 -188.216690 -224.732346 -21.137953 94.280670 -28.131250 179.902283 293.899567
50 -188.216690 -224.732346 -21.137953 91.691574 -18.091518 -170.769745 293.899567
[L_Toe2_01]
48 200.746536 -219.926590 148.838394 -108.981155 -14.925543 -28.373253 332.896027
49 200.746536 -219.926590 148.838394 -108.981148 -14.925473 -28.373354 332.896027
50 200.746536 -219.926590 148.838394 -100.490204 -20.359011 -40.891171 332.896027
[L_Toe3_01]
48 188.832520 -219.859131 -191.078659 -119.528816 36.514465 -78.862701 347.140900
49 188.832520 -219.859131 -191.078659 -119.528816 36.514465 -78.862701 347.140900
50 188.832520 -219.859131 -191.078659 -109.627594 26.212040 -71.799126 347.140900
[planeAlignerLeft]
48 0.812531 -811.448792 -0.314951 0.000000 -90.000000 -90.001900 811.449280
49 0.812531 -811.448792 -0.314951 0.000000 -90.000000 -90.001900 811.449280
50 0.812531 -811.448792 -0.314951 0.000000 -90.000000 -90.001900 811.449280
[L_Toe1_02]
48 413.761139 0.000477 0.000000 0.001661 0.070897 0.001661 413.761139
49 413.761139 0.000477 0.000000 0.001661 0.070897 0.001661 413.761139
50 413.761139 0.000477 0.000000 0.001395 -24.532185 0.001395 413.761139
[L_Toe1_03]
48 464.317322 0.000358 -0.000089 0.001673 -0.448396 -0.003292 464.317322
49 464.317322 0.000358 -0.000089 0.001673 -0.448396 -0.003292 464.317322
50 464.317322 0.000358 -0.000089 0.002683 38.129223 0.002683 464.317322
[L_Toe2_02]
48 342.235809 -0.000477 0.000238 0.004684 -81.240211 0.004684 342.235809
49 342.235809 -0.000477 0.000238 0.004684 -81.240494 0.004684 342.235809
50 342.235809 -0.000477 0.000238 0.004687 -80.299065 0.004687 342.235809
[L_Toe2_03]
48 420.210846 -0.000715 0.000000 179.993195 44.163803 -179.999222 420.210846
49 420.210846 -0.000715 0.000000 179.993195 44.163803 -179.999222 420.210846
50 420.210846 -0.000715 0.000000 -179.999405 62.229813 -179.995804 420.210846
[L_Toe3_02]
48 329.270111 0.000954 0.000000 0.004675 -84.660500 0.004675 329.270111
49 329.270111 0.000954 0.000000 0.004675 -84.659843 0.004675 329.270111
50 329.270111 0.000954 0.000000 0.004676 -84.325806 0.004676 329.270111
[L_Toe3_03]
48 439.137451 -0.001907 0.000954 179.993454 37.691116 -179.998764 439.137451
49 439.137451 -0.001907 0.000954 179.993454 37.691116 -179.998764 439.137451
50 439.137451 -0.001907 0.000954 179.992432 54.913731 179.999771 439.137451
[planeLockWeightLeft]
48 -0.000954 0.000238 -0.000305 -0.011826 -0.004376 0.005620 0.001029
49 -0.000954 0.000238 -0.000305 -0.011826 -0.004376 0.005620 0.001029
50 -0.000954 0.000238 -0.000305 -0.011826 -0.004376 0.005620 0.001029
[R_Leg01]
48 761.455627 -0.001907 -0.000358 114.551529 -16.570799 35.378124 761.455688
49 761.455627 -0.001907 -0.000358 114.400421 -15.591688 34.725231 761.455688
50 761.455627 -0.001907 -0.000358 113.431465 -13.938211 36.895397 761.455688
[R_Leg02]
48 1441.140625 0.000000 -0.000238 -2.307228 -0.841049 -140.893082 1441.140625
49 1441.140625 0.000000 -0.000238 -2.121883 -0.637305 -139.827423 1441.140625
50 1441.140625 0.000000 -0.000238 -1.852493 -0.420461 -136.647537 1441.140625
[R_Leg03]
48 1686.963989 0.000954 0.001431 0.110283 -0.066930 140.054031 1686.963989
49 1686.963989 0.000954 0.001431 0.099096 -0.058568 137.204559 1686.963989
50 1686.963989 0.000954 0.001431 0.087800 -0.050396 133.827545 1686.963989
[R_Foot]
48 3041.560059 -30.531288 -11.204481 -8.321625 -18.124096 73.229485 3041.734131
49 3041.560059 -30.531288 -11.204481 -8.182218 -20.191092 73.810028 3041.734131
50 3041.560059 -30.531288 -11.204481 -8.357632 -22.342665 73.644180 3041.734131
[planeAlignerRight]
48 -0.635147 -812.270569 -0.364304 0.000000 -89.960434 -90.005180 812.270874
49 -0.635147 -812.270569 -0.364304 0.000000 -89.960434 -90.005180 812.270874
50 -0.635147 -812.270569 -0.364304 0.000000 -89.960434 -90.005180 812.270874
[R_Toe1_01]
48 -188.383347 -224.864899 21.052242 77.287460 -3.080863 169.625961 294.101532
49 -188.383347 -224.864899 21.052242 77.258423 -3.037391 169.845230 294.101532
50 -188.383347 -224.864899 21.052242 77.229561 -2.993809 170.064499 294.101532
[R_Toe2_01]
48 200.637817 -220.002121 -148.787384 -84.436592 32.469402 -46.244637 332.857574
49 200.637817 -220.002121 -148.787384 -84.469383 32.421089 -46.325207 332.857574
50 200.637817 -220.002121 -148.787384 -84.502060 32.372726 -46.405701 332.857574
[R_Toe3_01]
48 188.606735 -220.092957 191.126343 -73.534859 -7.757643 -62.197689 347.192566
49 188.606735 -220.092957 191.126343 -73.551285 -7.666297 -62.369915 347.192566
50 188.606735 -220.092957 191.126343 -73.567986 -7.575009 -62.542137 347.192566
[planeLockWeightRight]
48 -0.000477 0.000000 0.000000 -0.011823 -0.004379 -0.000027 0.000477
49 -0.000477 0.000000 0.000000 -0.011823 -0.004379 -0.000027 0.000477
50 -0.000477 0.000000 0.000000 -0.011823 -0.004379 -0.000027 0.000477
[R_Toe1_02]
48 413.762085 0.000477 -0.000119 0.001467 -16.239882 0.001467 413.762085
49 413.762085 0.000477 -0.000119 0.001467 -16.234886 0.001467 413.762085
50 413.762085 0.000477 -0.000119 0.001467 -16.229889 0.001467 413.762085
[R_Toe1_03]
48 464.317810 0.000000 0.001088 -179.996521 77.396584 -179.993011 464.317810
49 464.317810 0.000000 0.001088 -179.996536 77.380760 -179.993011 464.317810
50 464.317810 0.000000 0.001088 -179.996536 77.364914 -179.993027 464.317810
[R_Toe2_02]
48 342.234741 -0.000954 0.000238 0.001233 -54.341568 0.001233 342.234741
49 342.234741 -0.000954 0.000238 0.001235 -53.878567 0.001235 342.234741
50 342.234741 -0.000954 0.000238 0.001236 -53.415527 0.001236 342.234741
[R_Toe2_03]
48 420.210846 0.000715 -0.000268 -0.003640 52.613308 0.000053 420.210846
49 420.210846 0.000715 -0.000268 -0.003615 51.996483 0.000084 420.210846
50 420.210846 0.000715 -0.000268 -0.003591 51.379601 0.000115 420.210846
[R_Toe3_02]
48 329.270355 -0.000477 -0.000954 0.001189 -71.466675 0.001189 329.270355
49 329.270355 -0.000477 -0.000954 0.001190 -71.201050 0.001190 329.270355
50 329.270355 -0.000477 -0.000954 0.001190 -70.935326 0.001190 329.270355
[R_Toe3_03]
48 439.137939 0.000238 0.001431 0.009971 76.478874 0.009971 439.137939
49 439.137939 0.000238 0.001431 0.009585 75.931137 0.009585 439.137939
50 439.137939 0.000238 0.001431 0.009228 75.383423 0.009228 439.137939
[Rear_Leg02]
48 1162.777710 -0.029802 0.005960 3.246132 12.978873 -90.553261 1162.777710
49 1162.777710 -0.029802 0.005960 2.917182 10.861796 -92.508736 1162.777710
50 1162.777710 -0.029802 0.005960 3.132594 8.385319 -89.748756 1162.777710
[Rear_Leg03]
48 607.192505 -0.013351 -0.073195 0.006634 -0.001539 54.340855 607.192505
49 607.192505 -0.013351 -0.073195 0.006640 -0.001513 53.891098 607.192505
50 607.192505 -0.013351 -0.073195 0.008815 0.003089 51.375122 607.192505
[Rear_Leg04]
48 995.874512 -0.020504 -0.011921 -0.035966 -0.016625 40.382862 995.874573
49 995.874512 -0.020504 -0.011921 -0.035859 -0.016854 39.651417 995.874573
50 995.874512 -0.020504 -0.011921 -0.033733 -0.013382 35.648827 995.874573
[Rear_Foot]
48 3096.176270 -0.067472 -0.041425 76.121994 78.867973 -86.135574 3096.176270
49 3096.176270 -0.067472 -0.041425 62.673897 79.722549 -100.065033 3096.176270
50 3096.176270 -0.067472 -0.041425 66.764481 82.059052 -95.275642 3096.176270
[planeAlignerCenter]
48 0.350077 0.966311 -838.790894 0.000009 0.000003 -179.999985 838.791565
49 0.350077 0.966311 -838.790894 0.000009 0.000003 -179.999985 838.791565
50 0.350077 0.966311 -838.790894 0.000009 0.000003 -179.999985 838.791565
[Rear_Toe1_01]
48 0.653352 83.966492 -371.173737 11.927683 51.027969 102.086205 380.553192
49 0.653352 83.966492 -371.173737 9.672011 39.080986 97.405037 380.553192
50 0.653352 83.966492 -371.173737 7.173911 27.544029 94.138664 380.553192
[Rear_Toe2_01]
48 178.200760 -294.826019 -362.060547 -25.120365 60.959793 -82.404816 499.765686
49 178.200760 -294.826019 -362.060547 -19.796129 42.143356 -75.916832 499.765686
50 178.200760 -294.826019 -362.060547 -15.618500 26.008461 -71.901833 499.765686
[Rear_Toe3_01]
48 -153.359680 -308.780914 -362.060852 -14.720762 43.621716 -123.592110 499.952881
49 -153.359680 -308.780914 -362.060852 -7.187394 31.092588 -115.927750 499.952881
50 -153.359680 -308.780914 -362.060852 -2.977637 17.567005 -112.101646 499.952881
[planeLockWeightCenter]
48 -0.000062 0.000238 0.000000 -0.011814 -0.004373 -0.000015 0.000246
49 -0.000062 0.000238 0.000000 -0.011814 -0.004373 -0.000015 0.000246
50 -0.000062 0.000238 0.000000 -0.011814 -0.004373 -0.000015 0.000246
[Rear_Toe1_02]
48 379.707825 0.194073 0.000477 0.001332 -33.583443 0.001332 379.707855
49 379.707825 0.194073 0.000477 -0.002639 -33.314926 -0.002639 379.707855
50 379.707825 0.194073 0.000477 -0.002651 -32.422890 -0.002651 379.707855
[Rear_Toe1_03]
48 500.129700 0.165701 0.000119 0.007016 70.741592 0.007016 500.129761
49 500.129700 0.165701 0.000119 0.019601 83.134560 0.019601 500.129761
50 500.129700 0.165701 0.000119 -179.977646 86.803772 -179.981140 500.129761
[Rear_Toe2_02]
48 340.494507 0.000238 -0.000954 -0.055686 -86.363960 0.054536 340.494507
49 340.494507 0.000238 -0.000954 0.001185 -73.898880 0.001186 340.494507
50 340.494507 0.000238 -0.000954 0.001237 -53.273014 0.001237 340.494507
[Rear_Toe2_03]
48 433.103577 0.000000 0.000238 -179.992920 77.599243 -179.996445 433.103546
49 433.103577 0.000000 0.000238 0.009843 76.305115 0.009843 433.103546
50 433.103577 0.000000 0.000238 0.003276 48.018417 0.003276 433.103546
[Rear_Toe3_02]
48 340.494141 -0.000358 -0.000477 0.001174 -88.927719 0.001174 340.494171
49 340.494141 -0.000358 -0.000477 0.001185 -73.929855 0.001185 340.494171
50 340.494141 -0.000358 -0.000477 -0.002479 -49.094372 -0.002479 340.494171
[Rear_Toe3_03]
48 433.103577 0.001431 -0.000238 -179.998444 70.111832 -179.994904 433.103546
49 433.103577 0.001431 -0.000238 0.009889 76.368210 0.009889 433.103546
50 433.103577 0.001431 -0.000238 0.000452 43.360023 -0.003356 433.103546
[Back_Bone]
48 1312.175781 -701.934692 0.000954 -7.988232 1.835437 -86.502609 1488.125488
49 1312.175781 -701.934692 0.000954 -8.072326 2.355812 -87.312546 1488.125488
50 1312.175781 -701.934692 0.000954 -7.758191 2.107971 -87.284554 1488.125488
[Head]
48 1406.159424 809.709290 0.001431 0.818417 -0.921432 12.205072 1622.625488
49 1406.159424 809.709290 0.001431 0.160998 -1.466276 11.598231 1622.625488
50 1406.159424 809.709290 0.001431 0.129112 -1.467758 11.043475 1622.625488
[Motor_Bone]
48 1158.364380 -417.834747 0.000477 -0.328557 11.653975 -105.361626 1231.419434
49 1158.364380 -417.834747 0.000477 -0.096782 11.065767 -103.610046 1231.419434
50 1158.364380 -417.834747 0.000477 -0.098769 10.279105 -103.850334 1231.419434
[Ping_Mechanism]
48 1255.603271 -458.583893 78.143448 0.000103 -0.000053 82.120995 1339.009033
49 1249.926758 -457.071533 73.299988 0.000103 -0.000053 82.120995 1332.893188
50 1239.697876 -452.580109 60.626301 0.000103 -0.000053 82.120995 1321.118896
[BN_LookIK]
48 193.241119 1380.371704 -0.002861 0.000000 89.965736 -31.038179 1393.832153
49 193.241119 1380.371704 -0.002861 0.000000 89.965736 -31.038179 1393.832153
50 193.241119 1380.371704 -0.002861 0.000000 89.965736 -31.038179 1393.832153
[bottomMouth]
48 -435.092926 615.759399 -0.000954 -0.000022 0.000016 73.527184 753.966492
49 -435.092926 615.759399 -0.000954 -0.000022 0.000016 73.527184 753.966492
50 -435.092926 615.759399 -0.000954 -0.000022 0.000016 73.527184 753.966492
[L_Mouth01]
48 554.440979 7.658243 838.222046 150.204178 23.759130 109.605339 1005.027161
49 554.440979 7.658243 838.222046 150.204178 23.759130 109.605339 1005.027161
50 554.440979 7.658243 838.222046 150.204178 23.759130 109.605339 1005.027161
[L_mouthFront]
48 551.629089 934.514771 339.150421 0.000081 2.804060 79.119301 1136.941284
49 551.629089 934.514771 339.150421 0.000081 2.804060 79.119301 1136.941284
50 551.629089 934.514771 339.150421 0.000081 2.804060 79.119301 1136.941284
[mouthGun]
48 55.332661 1627.420898 0.000000 0.000023 0.000009 -11.038128 1628.361328
49 55.332661 1627.420898 0.000000 0.000023 0.000009 -11.038128 1628.361328
50 55.332661 1627.420898 0.000000 0.000023 0.000009 -11.038128 1628.361328
[R_Mouth01]
48 554.442383 7.659197 -838.223938 29.795891 -23.759109 109.605331 1005.029541
49 554.442383 7.659197 -838.223938 29.795891 -23.759109 109.605331 1005.029541
50 554.442383 7.659197 -838.223938 29.795891 -23.759109 109.605331 1005.029541
[R_mouthFront]
48 551.629089 934.514282 -339.151367 0.000029 -2.803930 79.119133 1136.941162
49 551.629089 934.514282 -339.151367 0.000029 -2.803930 79.119133 1136.941162
50 551.629089 934.514282 -339.151367 0.000029 -2.803930 79.119133 1136.941162
[TopMouth]
48 461.269867 -56.106091 -0.008583 -0.000059 -0.000268 92.025169 464.669525
49 461.269867 -56.106091 -0.008583 -0.000059 -0.000268 92.025169 464.669525
50 461.269867 -56.106091 -0.008583 -0.000059 -0.000268 92.025169 464.669525
[weapon_bone]
48 -987.239868 1448.372803 0.001431 0.000000 89.965736 -31.038221 1752.833740
49 -987.239868 1448.372803 0.001431 0.000000 89.965736 -31.038221 1752.833740
50 -987.239868 1448.372803 0.001431 0.000000 89.965736 -31.038221 1752.833740
